PathFileType	4	(X/Y/Z)	C:\Users\Basilio\Documents\Thesis Gigler\squatting_fais\c3dfiles\075\SLS_front_pre5\markers_experimental.trc
DataRate	CameraRate	NumFrames	NumMarkers	Units	OrigDataRate	OrigDataStartFrame	OrigNumFrames
200.000000	200.000000	4	61	mm	200.000000	511	1363
Frame#	Time	FHD			LBHD			C7			T10			CLAV			LSHO			LUUPA			LMUPA			LDUPA			LLEP			LMEP			LRAD			LUL			LRFIN			RSHO			RUPA1			RMUPA			RDUPA			RLEP			RMEP			RRAD			RUL			RUFIN			RASI			USACR			LSACR			RSACR			LTHI1			LTHI2			LTHI3			LTHI4			LLFC			LMFC			LTIB1			LTIB2			LTIB3			LTIB4			LLMAL			LMMAL			LHEE			LMT1			LMT2			LMT5			RTHI			RTHI2			RTHI3			RTHI4			RLFC			RMFC			RTIB1			RTIB2			RTIB3			RTIB4			RLMAL			RMMAL			RHEE			RMT1			RMT2			RMT5			LASI			RBHD			
		X1	Y1	Z1	X2	Y2	Z2	X3	Y3	Z3	X4	Y4	Z4	X5	Y5	Z5	X6	Y6	Z6	X7	Y7	Z7	X8	Y8	Z8	X9	Y9	Z9	X10	Y10	Z10	X11	Y11	Z11	X12	Y12	Z12	X13	Y13	Z13	X14	Y14	Z14	X15	Y15	Z15	X16	Y16	Z16	X17	Y17	Z17	X18	Y18	Z18	X19	Y19	Z19	X20	Y20	Z20	X21	Y21	Z21	X22	Y22	Z22	X23	Y23	Z23	X24	Y24	Z24	X25	Y25	Z25	X26	Y26	Z26	X27	Y27	Z27	X28	Y28	Z28	X29	Y29	Z29	X30	Y30	Z30	X31	Y31	Z31	X32	Y32	Z32	X33	Y33	Z33	X34	Y34	Z34	X35	Y35	Z35	X36	Y36	Z36	X37	Y37	Z37	X38	Y38	Z38	X39	Y39	Z39	X40	Y40	Z40	X41	Y41	Z41	X42	Y42	Z42	X43	Y43	Z43	X44	Y44	Z44	X45	Y45	Z45	X46	Y46	Z46	X47	Y47	Z47	X48	Y48	Z48	X49	Y49	Z49	X50	Y50	Z50	X51	Y51	Z51	X52	Y52	Z52	X53	Y53	Z53	X54	Y54	Z54	X55	Y55	Z55	X56	Y56	Z56	X57	Y57	Z57	X58	Y58	Z58	X59	Y59	Z59	X60	Y60	Z60	X61	Y61	Z61	

512	2.555	-248.4036407470704	1504.8818359375	-763.7573242187501	-402.2093505859376	1401.30517578125	-838.4410400390627	-444.699920654297	1297.587890625	-782.613464355469	-554.9599609375001	996.0982666015627	-775.8748168945315	-318.4195556640626	1211.426025390625	-775.9627685546877	-331.5492553710938	1269.00537109375	-907.5442504882815	-177.4954071044922	1202.128784179688	-993.4943847656252	-153.216796875	1220.416625976563	-954.282165527344	-108.9880981445313	1194.000366210938	-985.9260253906252	-28.96435165405274	1183.5244140625	-968.995544433594	-49.97662353515626	1111.360961914063	-928.1271972656252	nan	nan	nan	208.7198486328126	1195.439453125	-865.612976074219	212.1475372314454	1216.417724609375	-762.2756347656251	-348.3582458496094	1262.181762695313	-643.8818359375001	-209.082260131836	1195.958740234375	-536.9051513671876	-176.3948516845703	1212.458984375	-569.4590454101564	-139.3844451904297	1184.739135742188	-529.8745117187501	-69.39523315429689	1178.752197265625	-537.0991821289064	-65.50428771972658	1105.178100585938	-560.8027343750001	147.8662719726563	1203.706665039063	-709.0444335937501	168.2159729003907	1211.886962890625	-634.0831909179689	223.5133666992188	1237.214721679688	-734.9634399414064	-419.224822998047	810.0434570312502	-668.1862182617189	-577.3432617187501	869.3286132812502	-785.6946411132815	-586.7822875976564	839.5098266601565	-813.3701782226565	-583.5805053710939	836.1204223632815	-758.5712280273439	-325.9472351074219	669.2356567382814	-1006.505737304688	-243.9469757080079	652.4033813476564	-1006.394714355469	-222.8130798339844	690.5138549804689	-982.5809326171877	-214.078353881836	600.3837890625001	-1004.0927734375	-136.2271118164063	525.4927368164064	-996.905212402344	-99.63932800292972	540.4229125976564	-873.8933105468752	-10.71030521392822	473.7849731445314	-966.8943481445315	-30.81152725219727	406.2782287597657	-1016.848388671875	4.845415115356446	426.8814697265626	-997.0047607421877	53.65750885009767	363.2944335937501	-968.6342773437502	89.55031585693361	204.9648132324219	-990.8114013671877	101.7530593872071	235.7672882080079	-907.9998779296877	53.83842086791994	154.1846771240235	-947.8401489257815	244.4116668701172	231.4780578613282	-902.7373046875002	254.1271362304688	231.0906372070313	-951.367614746094	234.1155090332032	188.6993713378907	-998.6556396484377	-383.2525329589844	622.6613159179689	-609.2330322265626	-318.2028503417969	609.2570190429689	-609.1682128906251	-297.8799438476563	635.0469360351564	-617.5056762695314	-283.6891174316407	532.3786621093751	-616.1616210937501	-205.5849151611329	415.3627319335939	-655.0363769531251	-173.7664184570313	434.1487731933595	-775.8756103515627	-196.9673614501954	288.1387023925782	-751.3239746093751	-277.1908569335938	229.8863983154297	-706.1573486328126	-247.7983856201172	217.0211181640626	-742.4630126953126	-276.1173706054688	192.4892272949219	-787.2637329101565	-392.8152160644532	105.9366912841797	-766.9890747070314	-351.2052917480469	137.84375	-843.617370605469	-445.7568969726564	93.2916946411133	-834.045837402344	-242.2226257324219	58.05211639404298	-822.607849121094	-246.9220733642579	55.21730422973634	-780.0625610351565	-289.5312500000001	33.33473587036134	-733.3074951171876	-430.3854370117189	830.003356933594	-915.7801513671877	nan	nan	nan	
513	2.56	-249.0118408203126	1503.910400390625	-764.2218627929689	-401.9166870117189	1399.98779296875	-838.577087402344	-444.7004699707032	1296.559814453125	-782.6524047851565	-555.0767211914064	995.133239746094	-775.9660644531252	-318.4094238281251	1210.245971679688	-776.0864868164065	-331.4584655761719	1267.670166015625	-907.6087646484377	-177.2296752929688	1201.053588867188	-993.4954833984377	-153.301025390625	1219.392211914063	-954.373718261719	-109.4129257202149	1192.871215820313	-985.3648071289065	-29.3049602508545	1182.268798828125	-967.9236450195315	-49.61079406738283	1110.1064453125	-927.7257080078127	nan	nan	nan	208.9100036621094	1194.337890625	-865.4736328125002	212.1349487304688	1215.178100585938	-761.8564453125001	-348.1460571289063	1260.889282226563	-643.9300537109376	-208.9333190917969	1194.647216796875	-537.0918579101564	-176.3054962158203	1211.26611328125	-569.4443359375001	-139.2608947753907	1183.598022460938	-529.8659057617189	-69.36044311523439	1177.480590820313	-537.1837768554689	-65.41602325439455	1104.031005859375	-560.7150268554689	148.0243530273438	1202.800903320313	-708.8012084960939	168.4863433837891	1210.51220703125	-634.1658325195314	223.7331695556641	1235.998657226563	-734.8397216796876	-419.5008850097657	809.2075195312502	-668.2778320312501	-577.6526489257814	868.4390258789065	-785.9426269531252	-587.1505126953126	838.5642700195315	-813.4984130859377	-583.9205932617189	835.152526855469	-758.7078857421876	-327.3804931640626	668.8917236328126	-1006.96533203125	-244.1082000732422	651.6760253906251	-1006.582885742188	-222.9973449707032	689.8184814453126	-982.5371093750002	-214.0884094238282	599.6039428710939	-1004.148681640625	-136.1592864990235	524.9639892578126	-997.0013427734377	-99.67995452880862	539.8961181640626	-873.9234008789065	-10.60115718841553	473.3629455566407	-966.8508300781252	-30.74890708923341	405.6282958984376	-1016.707824707031	4.878211021423341	426.3305053710939	-996.886901855469	53.88018798828126	362.8177185058594	-968.5194091796877	89.98267364501955	204.612045288086	-990.6597900390627	101.9684600830078	235.4315643310547	-907.933044433594	54.11439132690431	153.8437652587891	-947.623718261719	244.1759185791016	231.5655059814454	-902.909362792969	254.2750396728516	230.7450103759766	-951.2729492187502	234.4088897705079	188.3320617675782	-998.5435791015627	-383.3204345703126	621.8010864257814	-609.3088989257814	-318.2916259765626	608.4863891601564	-609.4233398437501	-297.9540710449219	634.5498657226564	-617.7313232421876	-283.4608154296876	531.9119262695314	-616.3716430664064	-205.1303863525391	415.0670166015626	-655.2272338867189	-173.4414367675782	433.8436279296876	-776.1065673828127	-196.6686706542969	287.8875122070313	-751.6300659179689	-276.8948364257813	229.7150573730469	-706.3624877929689	-247.5683135986329	216.9348907470704	-742.6006469726564	-276.7933654785157	192.4812011718751	-788.0023193359377	-392.7059631347657	105.9247436523438	-767.1316528320314	-351.3032226562501	137.7026519775391	-843.7916259765627	-445.7954406738282	93.28140258789064	-834.0955810546877	-242.1835021972657	57.99761962890626	-822.6284179687502	-246.8983459472657	55.41308593750001	-779.8621826171877	-289.5261840820313	33.38117599487305	-733.2976684570314	-430.7399902343751	828.7376708984377	-915.8130493164065	nan	nan	nan	
514	2.565	-248.8764801025391	1502.898315429688	-764.3306884765626	-401.8099975585939	1398.846313476563	-838.5058593750002	-444.5408935546876	1295.288818359375	-782.8724365234377	-555.2963867187501	994.0684204101565	-776.0728149414065	-318.4751281738282	1208.9287109375	-776.134704589844	-331.2921142578126	1266.658081054688	-907.6527099609377	-176.9809722900391	1200.0185546875	-993.4165039062502	-153.1431427001953	1218.396728515625	-954.398132324219	-108.8960571289063	1191.748168945313	-985.5269165039065	-28.55990409851075	1181.251831054688	-968.398132324219	-49.35711669921876	1109.078735351563	-927.8643188476565	nan	nan	nan	209.2351531982422	1193.310424804688	-865.367126464844	212.4866943359376	1214.11181640625	-761.8386840820314	-348.0168151855469	1259.877807617188	-644.0897827148439	-208.8131866455079	1193.746948242188	-536.8962402343751	-176.2017517089844	1210.1357421875	-569.4935302734376	-139.2063140869141	1182.415649414063	-529.9252929687501	-69.30033111572267	1176.346313476563	-537.0989379882814	-65.35684967041017	1102.87353515625	-560.7079467773439	148.012924194336	1201.801391601563	-708.7544555664064	168.5967559814453	1209.5380859375	-633.9494628906251	223.6940307617188	1234.937255859375	-734.7898559570314	-419.8116149902345	808.1968383789065	-668.3243408203126	-578.1936645507814	867.1355590820315	-785.9788208007815	-587.5161132812501	837.4658203125002	-813.6119384765627	-584.3695068359376	833.986022949219	-758.7795410156251	-326.4939880371094	667.7701416015626	-1006.566162109375	-244.4294433593751	651.0549316406251	-1006.6123046875	-223.2708435058594	689.1913452148439	-982.5529785156252	-214.1278228759766	599.1018676757814	-1004.21142578125	-136.3550567626953	524.4299926757814	-997.0628662109377	-99.72373962402347	539.3769531250001	-873.911560058594	-10.58005428314209	472.9548645019532	-966.818786621094	-30.69048690795899	405.3087768554689	-1016.619506835938	4.988534927368165	425.830780029297	-996.864929199219	53.92642211914064	362.4008178710938	-968.4912719726565	90.53707885742189	203.8751068115235	-990.5677490234377	102.1554107666016	235.0442810058594	-907.814636230469	54.28907394409181	153.4740447998047	-947.7088623046877	244.7825164794922	230.9163360595704	-902.4355468750002	254.7847595214844	230.2080688476563	-950.8619384765627	234.6731872558594	187.9266815185547	-998.3164062500002	-383.2238769531251	621.0115966796876	-609.3619995117189	-318.1913452148438	607.8357543945314	-609.5305175781251	-298.0054626464844	633.9907836914064	-617.9763183593751	-283.2276000976563	531.4224853515626	-616.4802246093751	-204.6942901611329	414.7446899414064	-655.4495239257814	-173.2345275878907	433.3041381835939	-776.3801879882815	-196.2535705566407	287.7267150878907	-752.0180664062501	-276.5452270507813	229.5394439697266	-706.5736694335939	-247.2522888183594	216.7603759765626	-742.8917236328126	-275.9398498535157	192.3474426269532	-787.664001464844	-392.5946044921876	105.9261856079102	-767.2197265625001	-351.2037353515626	137.6254577636719	-843.9470825195315	-445.8076171875001	93.27307128906251	-834.1743164062502	-242.1674499511719	57.89677810668947	-822.6558837890627	-246.9254150390626	55.39458465576173	-779.9788818359377	-289.5289306640626	33.40120315551759	-733.3358154296876	-431.2451171875001	827.8142700195315	-915.7827148437502	nan	nan	nan	
515	2.57	-248.5653686523438	1501.397338867188	-764.1404418945314	-401.6348876953126	1398.047607421875	-838.8121337890627	-444.3247680664064	1294.188842773438	-782.946472167969	-555.5263061523439	993.1414794921877	-776.1572265625002	-318.1864624023438	1207.7548828125	-776.2473754882815	-331.2716674804688	1265.594482421875	-907.6912231445315	-176.8767852783203	1198.992797851563	-993.4161376953127	-152.7454223632813	1217.232421875	-954.1230468750002	-108.3443984985352	1190.803955078125	-985.5530395507815	-28.27083396911622	1180.171020507813	-968.3093872070315	-49.47608184814455	1108.129638671875	-927.8830566406252	nan	nan	nan	209.1781616210938	1192.204711914063	-865.1856689453127	212.4473876953126	1213.036499023438	-761.7014160156251	-347.9998168945313	1258.680053710938	-644.2169799804689	-208.7563629150391	1192.469848632813	-537.0267333984376	-176.1125946044922	1208.846557617188	-569.6055297851564	-139.1249694824219	1181.233642578125	-529.9051513671876	-69.14459228515626	1175.284912109375	-537.1633300781251	-65.27032470703126	1101.842407226563	-560.9378051757814	148.2834167480469	1200.26953125	-708.6734619140626	168.6973571777344	1208.323608398438	-633.7752075195314	224.0027618408204	1233.738525390625	-734.4527587890626	-420.1120605468751	807.1282958984377	-668.3803100585939	-578.3963012695314	866.259704589844	-786.0848388671877	-587.6666870117189	836.3154296875002	-813.7034912109377	-584.6397705078126	833.0260009765627	-758.8905639648439	-326.9685363769532	667.0488891601564	-1006.680603027344	-244.4686279296876	650.2890014648439	-1006.530029296875	-223.4190673828126	688.6764526367189	-982.5852661132815	-214.1301422119141	598.4973754882814	-1004.159790039063	-136.4492645263672	523.9019775390626	-997.1079101562502	-99.8078536987305	538.8603515625001	-873.923278808594	-10.58465957641602	472.4371337890626	-966.8164672851565	-30.50759887695313	404.9024963378907	-1016.662719726563	4.635900497436524	425.440643310547	-997.0708618164065	54.00695419311525	361.9835205078126	-968.4503173828127	90.46414947509767	203.7552490234376	-990.4736938476565	102.3565139770508	234.6671142578126	-907.7119750976565	54.6051712036133	153.0225982666016	-947.5385742187502	244.9748687744141	230.4998931884766	-902.3193969726565	254.9615631103516	229.9108428955079	-950.6773681640627	234.9128570556641	187.5125579833985	-998.0222167968752	-383.2638244628907	620.1751098632814	-609.5150146484376	-318.1473388671876	607.2307739257814	-609.6414184570314	-298.0013122558594	633.2463989257814	-618.1491699218751	-282.9484558105469	530.9169311523439	-616.6652221679689	-204.2337646484376	414.4220275878907	-655.7084960937501	-173.0370635986328	433.0830078125001	-776.668884277344	-196.0122985839844	287.5606994628907	-752.2802734375001	-276.2240600585938	229.2440338134766	-706.9003906250001	-247.1056823730469	216.6972198486329	-743.2671508789064	-276.0575256347657	192.2907257080079	-788.1312255859377	-392.470184326172	105.9247970581055	-767.4016113281251	-351.0117187500001	137.3740844726563	-844.1876220703127	-445.776824951172	93.2184295654297	-834.3354492187502	-242.1984863281251	57.8297805786133	-822.7343750000002	-246.8891906738282	55.40093994140626	-779.9581298828127	-289.5375976562501	33.59015274047852	-733.2608032226564	-431.6976318359376	826.8027343750002	-915.947692871094	nan	nan	nan	
